<?xml version="1.0" encoding="utf-8"?>
<!-- Generator: Adobe Illustrator 27.4.1, SVG Export Plug-In . SVG Version: 6.00 Build 0)  -->
<svg version="1.1" id="Layer_1" xmlns="http://www.w3.org/2000/svg" xmlns:xlink="http://www.w3.org/1999/xlink" x="0px" y="0px"
	 width="153.1px" height="32.1px" viewBox="0 0 153.1 32.1" style="enable-background:new 0 0 153.1 32.1;" xml:space="preserve">
<style type="text/css">
	.st0{fill:#39BF93;}
	.st1{fill:#292966;}
</style>
<g>
	<path class="st0" d="M133.3,31c-0.2,0.2-0.4,0.2-0.6,0.1c-0.2-0.1-0.2-0.3-0.1-0.5L136,22c0.1-0.2,0-0.5-0.2-0.6
		c-0.1,0-0.1,0-0.2,0h-3.5c-0.3,0-0.5-0.2-0.5-0.5c0-0.1,0-0.1,0-0.2l3.9-8.2c0.1-0.2,0.2-0.3,0.4-0.3h4.6c0.3,0,0.5,0.2,0.5,0.5
		c0,0.1,0,0.1-0.1,0.2l-2.6,5c-0.1,0.2,0,0.5,0.2,0.6c0.1,0,0.1,0.1,0.2,0.1h3.4c0.3,0,0.5,0.2,0.5,0.5c0,0.1,0,0.2-0.1,0.3
		L133.3,31"/>
	<path class="st1" d="M136,10.5c-0.3,0-0.6,0.1-0.9,0.2c-1.1-0.8-2.4-1-3.7-0.7c-0.3,0.1-0.5-0.1-0.6-0.3c-0.1-0.3,0.1-0.5,0.3-0.6
		c0,0,0,0,0,0c0.6-0.2,1.2-0.2,1.9-0.2c-0.3-0.8-0.2-1.6,0.2-2.3c0.1-0.2,0.5-0.3,0.7-0.2c0.2,0.1,0.3,0.4,0.2,0.7c0,0,0,0,0,0
		c-0.3,0.6-0.3,1.4,0.2,2c0.2,0.2,0.5,0.3,0.8,0.4c0.3,0.1,0.5,0.3,0.8,0.5c0.2,0.2,0.4,0.3,0.6,0.5L136,10.5z M152.3,11.8
		c-0.1-1.1-0.6-2.1-1.3-3c0-0.3,0-0.6,0-1c-0.2-1.5-0.9-2.9-2.1-3.8c-1-0.8-2.3-1.3-3.7-1.3c-0.1,0-0.2,0-0.3,0
		c-1.2-1.2-2.9-1.9-4.7-1.9c-0.2,0-0.4,0-0.7,0c-1.5,0.1-2.8,0.8-3.9,1.8c-0.9-0.4-1.9-0.6-2.9-0.6c-0.2,0-0.4,0-0.6,0
		c-2.4,0.2-4.5,1.8-5.4,4.1c-3.7,1.3-5.7,5.4-4.3,9.1c0.4,1,0.9,1.9,1.7,2.7c-0.6,2,0.1,4.1,1.7,5.3c1.1,0.9,2.5,1.3,3.8,1.1
		c0.1,0,0.1,0,0.2,0c0.8,0.6,1.8,0.9,2.9,0.9c0,0,0.1,0,0.1,0l0.6-1.4c-0.1,0-0.2,0-0.4,0.1c-0.9,0.1-1.8-0.2-2.5-0.7l0,0
		c-0.4-0.3-0.8-0.7-1-1.2c-0.1-0.2-0.4-0.3-0.7-0.2c-0.2,0.1-0.3,0.4-0.2,0.6c0,0,0,0,0,0c0.1,0.2,0.3,0.4,0.4,0.6
		c-0.9,0-1.7-0.3-2.4-0.8c-0.8-0.6-1.3-1.5-1.4-2.5c-0.1-0.5,0-1.1,0.2-1.6c0.2-0.5,0.5-0.9,0.8-1.3c0.2-0.2,0.2-0.5,0-0.7
		c0,0,0,0,0,0c-0.2-0.2-0.5-0.2-0.7,0c-0.2,0.2-0.4,0.5-0.6,0.8c-0.9-0.9-1.4-2.1-1.6-3.4c-0.2-2.7,1.4-5.2,4-6.1
		c0.5-0.2,1-0.3,1.4-0.3c0.3,0,0.5-0.3,0.5-0.5c0,0,0,0,0,0c0-0.3-0.3-0.5-0.6-0.4c-0.2,0-0.3,0-0.5,0.1c0.8-1.5,2.3-2.5,4-2.7
		c1-0.1,2,0.1,2.8,0.5c-0.1,0.2-0.2,0.4-0.4,0.6c-0.1,0.2,0,0.5,0.2,0.6c0,0,0,0,0,0c0.2,0.1,0.5,0,0.7-0.2c0.2-0.3,0.4-0.7,0.6-0.9
		c0.9-1,2.1-1.6,3.4-1.8c1.7-0.2,3.3,0.5,4.4,1.7c0,0,0.1,0,0.1,0.1c0.4,0.4,0.6,0.9,0.8,1.5c0.1,0.2,0.3,0.3,0.5,0.3
		c0.1,0,0.1,0,0.2,0c0.3-0.1,0.4-0.4,0.3-0.6c0,0,0,0,0,0c-0.1-0.4-0.3-0.8-0.5-1.1c0.9,0,1.8,0.4,2.5,0.9c0.9,0.7,1.5,1.7,1.6,2.9
		c0,0.3,0,0.7,0,1c0,0.1,0,0.3,0.1,0.4c0.7,0.7,1.1,1.6,1.2,2.5c0.2,2.4-1.5,4.5-3.9,4.7c0,0,0,0,0,0c-0.5,0-1.1,0-1.6-0.1
		c0.3-0.5,0.5-1.1,0.6-1.7c0-0.3-0.2-0.5-0.5-0.5c0,0,0,0,0,0c-0.3,0-0.5,0.2-0.5,0.4c-0.1,0.6-0.3,1.2-0.7,1.7c0,0-0.1,0.1-0.1,0.1
		c-0.2,0.3-0.5,0.5-0.9,0.7c0.4,0.2,0.7,0.6,0.9,1c0,0,0,0.1,0,0.1c0.2-0.1,0.4-0.3,0.6-0.4c0.5,0.2,1.1,0.2,1.7,0.2
		c0.2,0,0.4,0,0.6,0c1.5-0.1,2.9-0.9,3.9-2C152,14.8,152.4,13.3,152.3,11.8L152.3,11.8z M136.5,8.9c0.2,0.2,0.5,0.1,0.7-0.1
		c1.1-1.3,3-1.7,4.6-0.9c1.5,0.8,2.3,2.5,1.8,4.2c-0.1,0.3,0.1,0.5,0.3,0.6c0,0,0,0,0,0c0,0,0.1,0,0.1,0c0.2,0,0.4-0.1,0.5-0.3
		c0.3-0.9,0.3-1.9-0.1-2.8c0.7-0.4,1.5-0.4,2.2,0.1c0.2,0.2,0.5,0.1,0.7-0.1c0.2-0.2,0.2-0.5,0-0.7c0,0,0,0,0,0
		c-1-0.7-2.2-0.8-3.2-0.2c-0.4-0.7-1-1.2-1.8-1.6c-0.4-0.2-0.7-0.3-1.1-0.4c-0.3,0-0.6-0.2-0.8-0.4c-0.3-0.5-0.2-1,0.1-1.4
		c0.2-0.2,0.2-0.5,0-0.7c0,0,0,0,0,0c-0.2-0.2-0.5-0.2-0.7,0c-0.7,0.7-0.8,1.7-0.3,2.5c-1.2,0.2-2.2,0.7-3,1.6
		C136.3,8.4,136.3,8.7,136.5,8.9C136.5,8.9,136.5,8.9,136.5,8.9z M131.7,13.8c0.1-0.2,0-0.5-0.3-0.6c0,0,0,0,0,0
		c-0.3-0.1-0.5,0-0.7,0.3c-0.1,0.3-0.2,0.6-0.3,1c-0.5,0-1-0.1-1.4-0.4c-0.5-0.4-0.7-0.9-0.7-1.5c0-0.3-0.2-0.5-0.5-0.5c0,0,0,0,0,0
		c-0.3,0-0.5,0.2-0.5,0.5c0,0.9,0.4,1.8,1.1,2.3c0.5,0.4,1.2,0.7,1.9,0.7c0,0,0.1,0,0.1,0c0,0.9,0.3,1.7,0.8,2.4
		c-0.2,0-0.4,0-0.6,0.1c-0.7,0.2-1.3,0.8-1.6,1.5c-0.1,0.3,0,0.5,0.3,0.6c0,0,0,0,0,0c0.3,0.1,0.5,0,0.6-0.3
		c0.1-0.4,0.4-0.7,0.8-0.8l1.1-2.2C131.3,15.8,131.3,14.7,131.7,13.8L131.7,13.8z M127.8,9.4c0-0.3-0.3-0.5-0.6-0.4
		c-1.4,0.2-2.4,1.5-2.3,2.9c0,0.3,0.2,0.4,0.5,0.4c0,0,0,0,0.1,0c0.3,0,0.5-0.3,0.4-0.5c0,0,0,0,0,0c0-0.4,0.1-0.9,0.4-1.2
		c0.3-0.3,0.6-0.6,1.1-0.6C127.6,10,127.8,9.7,127.8,9.4L127.8,9.4z M146.9,14c0,0.2,0.3,0.4,0.5,0.4c0,0,0.1,0,0.1,0
		c0.7-0.1,1.2-0.5,1.6-1c0.4-0.5,0.5-1.2,0.3-1.8c-0.1-0.3-0.3-0.4-0.6-0.4c-0.3,0.1-0.4,0.3-0.4,0.6c0,0,0,0,0,0
		c0.1,0.4,0,0.7-0.2,1.1c-0.2,0.3-0.6,0.5-0.9,0.6C147.1,13.5,146.9,13.8,146.9,14C146.9,14,146.9,14,146.9,14L146.9,14z"/>
</g>
<g>
	<path class="st1" d="M25.3,20.7c0,0.8-0.1,1.3-0.4,1.3h-5.6v-5.9H14v6c0,3.2-2.6,5.3-6.4,5.3c-3.9,0-6.7-2.3-6.7-5.5
		c0-1.2,0.4-4.1,0.8-6.4L4.6,16c-0.5,3.1-0.7,5.2-0.7,6c0,1.7,1.5,2.8,3.8,2.8c2.3,0,3.5-1,3.5-2.7V11H14v2.4h5.2V11h2.9v8.4h2.6
		C25.2,19.4,25.3,19.9,25.3,20.7z M8.9,11H6v-3h2.9V11z M17.1,23.4H20v3h-2.9V23.4z M21.4,23.4h2.9v3h-2.9V23.4z"/>
	<path class="st1" d="M30.7,22h-5.6c-0.4,0-0.4-0.5-0.4-1.3s0.1-1.3,0.4-1.3h2.6V11h2.9V22z M25.6,23.4h2.9v3h-2.9V23.4z M32.9,23.4
		v3h-2.9v-3H32.9z"/>
	<path class="st1" d="M49.2,20.7c0,0.8-0.1,1.3-0.4,1.3H33.2v-2.6h3.2V9.6h2.9v9.8h3.9V6.6h2.9v12.8h2.6
		C49.1,19.4,49.2,19.9,49.2,20.7z"/>
	<path class="st1" d="M65.1,20.7c0,0.8-0.1,1.3-0.4,1.3h-16c-0.4,0-0.4-0.5-0.4-1.3s0.1-1.3,0.4-1.3h2.7c-0.1-0.8-0.2-1.7-0.2-2.6
		c0-2.1,0.4-4.2,0.6-5.2c0.7-0.3,2.3-0.6,4.2-0.6c4,0,6,1.5,6,5.6v2.8h2.6C65.1,19.4,65.1,19.9,65.1,20.7z M59.1,19.4v-2.8
		c0-2.5-0.5-3-3-3c-0.6,0-1.1,0-1.6,0.1c-0.2,1-0.2,2.1-0.2,3c0,0.8,0.1,1.8,0.2,2.6H59.1z"/>
	<path class="st1" d="M70.9,6.6V22h-6.2c-0.4,0-0.4-0.5-0.4-1.3s0.1-1.3,0.4-1.3H68V6.6H70.9z"/>
	<path class="st1" d="M74.8,6.6h2.9V22h-2.9V6.6z"/>
	<path class="st1" d="M94.2,20.7c0,0.8-0.1,1.3-0.4,1.3h-2.6V23c0,2.7-1.7,4.5-4,4.5c-0.4,0-0.8,0-1.2-0.1l0.3-2.6
		c0.5,0,0.7,0.1,0.9,0.1c0.6,0,1.1-0.6,1.1-1.9V11h2.9v8.4h2.6C94.1,19.4,94.2,19.9,94.2,20.7z M91.1,9.4h-2.9v-3h2.9V9.4z"/>
	<path class="st1" d="M108.8,20.7c0,0.8-0.1,1.3-0.4,1.3h-3.5c-1.4,0-2.6-0.3-3.8-0.8c-1.1,0.5-2.4,0.8-3.8,0.8h-3.6
		c-0.4,0-0.4-0.5-0.4-1.3s0.1-1.3,0.4-1.3h3.6c0.3,0,0.5,0,0.8-0.1c-1.9-1.7-3-3.9-3-5.5v-1.3c1.9-1,4.2-1.5,6-1.5
		c1.8,0,4.1,0.5,6,1.5v1.3c0,1.6-1.1,3.8-3,5.5c0.3,0,0.5,0.1,0.8,0.1h3.5C108.7,19.4,108.8,19.9,108.8,20.7z M101.1,18.1
		c1.6-1,2.8-2.6,3-3.9c-1-0.4-2.1-0.5-3-0.5c-0.9,0-2,0.2-3,0.5C98.3,15.6,99.6,17.1,101.1,18.1z M102.5,9.4h-2.9v-3h2.9V9.4z"/>
	<path class="st1" d="M114.6,6.6V22h-6.2c-0.4,0-0.4-0.5-0.4-1.3s0.1-1.3,0.4-1.3h3.3V6.6H114.6z"/>
</g>
</svg>
