<?xml version="1.0" encoding="utf-8"?>
<!-- Generator: Adobe Illustrator 25.2.0, SVG Export Plug-In . SVG Version: 6.00 Build 0)  -->
<svg version="1.1" id="Layer_1" xmlns="http://www.w3.org/2000/svg" xmlns:xlink="http://www.w3.org/1999/xlink" x="0px" y="0px"
	 viewBox="0 0 188 188" style="enable-background:new 0 0 188 188;" xml:space="preserve">
<style type="text/css">
	.st0{opacity:0.12;fill:#A0A0A0;enable-background:new    ;}
</style>
<path class="st0" d="M102.1,18.4c0-1,0.8-1.8,1.8-1.8s1.8,0.8,1.8,1.8s-0.8,1.8-1.8,1.8S102.1,19.4,102.1,18.4L102.1,18.4z
	 M107,49.7c0,0.2,0.3,0.4,0.5,0.3l0,0l4.8-0.8l0.8,4.8c0,0.2,0.3,0.4,0.5,0.3l0,0l2.7-0.5c0.2,0,0.4-0.3,0.3-0.5l0,0l-1.5-8.3
	l-3.5,0.6l-4.8,0.8c-0.2,0-0.4,0.3-0.3,0.5l0,0L107,49.7z M100.6,84c0.8,0.7,1.9,0.6,2.6-0.2c0.7-0.8,0.6-1.9-0.2-2.6
	c-0.8-0.7-1.9-0.6-2.6,0.2C99.7,82.2,99.8,83.4,100.6,84L100.6,84z M108.7,79.8L100.1,90c-0.2,0.2-0.1,0.4,0,0.6l2.1,1.7
	c0.2,0.2,0.4,0.1,0.6,0l8.6-10.2c0.2-0.2,0.1-0.4,0-0.6l-2.1-1.7C109.1,79.6,108.9,79.6,108.7,79.8z M57.5,51.6c1,0,1.8-0.8,1.8-1.8
	S58.5,48,57.5,48s-1.8,0.8-1.8,1.8l0,0C55.7,50.7,56.5,51.6,57.5,51.6z M50.2,26.4c0.2,0.2,0.4,0.2,0.6,0l1.9-1.9
	c0.2-0.2,0.2-0.4,0-0.6l-9.4-9.4c-0.2-0.2-0.4-0.2-0.6,0l-1.9,1.9c-0.2,0.2-0.2,0.4,0,0.6L50.2,26.4z M41.8,22.8
	c-0.7,0.7-0.7,1.9,0,2.6s1.9,0.7,2.6,0c0.7-0.7,0.7-1.9,0-2.6C43.7,22.1,42.5,22.1,41.8,22.8L41.8,22.8z M130.6,5
	c0.7-0.7,0.7-1.9,0-2.6s-1.9-0.7-2.6,0c-0.7,0.7-0.7,1.9,0,2.6S129.9,5.7,130.6,5L130.6,5z M51.8,18c0.7-0.7,0.7-1.9,0-2.6
	c-0.7-0.7-1.9-0.7-2.6,0c-0.7,0.7-0.7,1.9,0,2.6S51.1,18.7,51.8,18L51.8,18z M164.3,4.3c-0.2,0-0.4,0.2-0.4,0.4v2.7
	c0,0.2,0.2,0.4,0.4,0.4h4.9v4.9c0,0.2,0.2,0.4,0.4,0.4h2.7c0.2,0,0.4-0.2,0.4-0.4V7.9h4.9c0.2,0,0.4-0.2,0.4-0.4V4.7
	c0-0.2-0.2-0.4-0.4-0.4h-4.9V0h-3.6v4.3H164.3z M131.6,183.9l-1.9-1.9c-0.2-0.2-0.4-0.2-0.6,0l-6,6h5l3.5-3.5
	C131.7,184.4,131.7,184.1,131.6,183.9z M135.2,26.3c0-3.3,2.7-5.9,5.9-5.9c3.3,0,5.9,2.7,5.9,5.9s-2.7,5.9-5.9,5.9l0,0
	C137.9,32.2,135.2,29.6,135.2,26.3z M138.4,26.3c0,1.5,1.2,2.8,2.8,2.8s2.8-1.2,2.8-2.8c0-1.5-1.2-2.8-2.8-2.8
	C139.6,23.5,138.4,24.8,138.4,26.3z M179.6,120.3c0.8,0.7,1.9,0.6,2.6-0.2s0.6-1.9-0.2-2.6s-1.9-0.6-2.6,0.2
	S178.8,119.7,179.6,120.3L179.6,120.3z M78.3,183.4l-2.8-4c-0.1-0.2-0.4-0.2-0.6-0.1l0,0l-2.2,1.6c-0.2,0.1-0.2,0.4-0.1,0.6l0,0
	l2.8,4l-3.7,2.6h6.2l2.5-1.7L78.3,183.4z M0.7,156.2c0,0.2,0.2,0.4,0.4,0.4h2.7c0.2,0,0.4-0.2,0.4-0.4v-4.9h4.9
	c0.2,0,0.4-0.2,0.4-0.4v-2.7c0-0.2-0.2-0.4-0.4-0.4H4.3v-4.9c0-0.2-0.2-0.4-0.4-0.4H1.2c-0.2,0-0.4,0.2-0.4,0.4v4.9H0v3.6h0.7V156.2
	z M172.3,187h-2.7c-0.2,0-0.4,0.2-0.4,0.4v0.6h3.6v-0.6C172.7,187.2,172.5,187,172.3,187z M169.7,65.1l2.5-2.5l3.5-3.5
	c0.2-0.2,0.2-0.4,0-0.6l-1.9-1.9c-0.2-0.2-0.4-0.2-0.6,0l-3.5,3.5l-3.5-3.5c-0.2-0.2-0.4-0.2-0.6,0l-1.9,1.9c-0.2,0.2-0.2,0.4,0,0.6
	L169.7,65.1z M71.3,0.8L72.9,3c0.1,0.2,0.4,0.2,0.6,0.1l0,0L77.9,0h-6.2l-0.3,0.2C71.2,0.4,71.2,0.6,71.3,0.8z M172.5,35.7
	c0.9-0.4,1.3-1.5,0.9-2.5s-1.5-1.3-2.5-0.9c-0.9,0.4-1.3,1.5-0.9,2.5C170.5,35.8,171.6,36.2,172.5,35.7L172.5,35.7z M119.6,4.1
	l1.9,1.9c0.2,0.2,0.4,0.2,0.6,0l6-6h-5l-3.5,3.5C119.5,3.6,119.5,3.9,119.6,4.1z M20.6,88.5v-2.7c0-0.2-0.2-0.4-0.4-0.4H6.8
	c-0.2,0-0.4,0.2-0.4,0.4v2.7c0,0.2,0.2,0.4,0.4,0.4h13.3C20.4,89,20.6,88.8,20.6,88.5z M120.6,183c-0.7,0.7-0.7,1.9,0,2.6
	c0.7,0.7,1.9,0.7,2.6,0s0.7-1.9,0-2.6C122.5,182.3,121.3,182.3,120.6,183L120.6,183z M80,60.6c0,1,0.8,1.8,1.8,1.8s1.8-0.8,1.8-1.8
	s-0.8-1.8-1.8-1.8S80,59.5,80,60.6L80,60.6z M135.8,149.6l-1.9-1.9c-0.2-0.2-0.4-0.2-0.6,0l-3.5,3.5l-3.5-3.5
	c-0.2-0.2-0.4-0.2-0.6,0l-1.9,1.9c-0.2,0.2-0.2,0.4,0,0.6l3.5,3.5l-3.5,3.5c-0.2,0.2-0.2,0.4,0,0.6l1.9,1.9c0.2,0.2,0.4,0.2,0.6,0
	l3.5-3.5l3.5,3.5c0.2,0.2,0.4,0.2,0.6,0l1.9-1.9c0.2-0.2,0.2-0.4,0-0.6l-3.5-3.5l3.5-3.5C136,150,136,149.8,135.8,149.6L135.8,149.6
	z M88.1,111.7l-1.9-1.9c-0.2-0.2-0.4-0.2-0.6,0l-3.5,3.5l-3.5-3.5c-0.2-0.2-0.4-0.2-0.6,0l-1.9,1.9c-0.2,0.2-0.2,0.4,0,0.6l3.5,3.5
	l-3.5,3.5c-0.2,0.2-0.2,0.4,0,0.6l1.9,1.9c0.2,0.2,0.4,0.2,0.6,0l3.5-3.5l3.5,3.5c0.2,0.2,0.4,0.2,0.6,0l1.9-1.9
	c0.2-0.2,0.2-0.4,0-0.6l-3.5-3.5l3.5-3.5C88.3,112.2,88.3,111.9,88.1,111.7z M134.4,90.6c-1,0-1.8,0.8-1.8,1.8s0.8,1.8,1.8,1.8
	s1.8-0.8,1.8-1.8S135.4,90.6,134.4,90.6L134.4,90.6z M102.4,158.4h-4.9v-4.9c0-0.2-0.2-0.4-0.4-0.4h-2.7c-0.2,0-0.4,0.2-0.4,0.4v4.9
	h-4.9c-0.2,0-0.4,0.2-0.4,0.4v2.7c0,0.2,0.2,0.4,0.4,0.4H94v4.9c0,0.2,0.2,0.4,0.4,0.4h2.7c0.2,0,0.4-0.2,0.4-0.4v-4.9h4.9
	c0.2,0,0.4-0.2,0.4-0.4v-2.7C102.9,158.6,102.7,158.4,102.4,158.4L102.4,158.4L102.4,158.4z M111.1,90.6c0.7-0.8,0.6-1.9-0.2-2.6
	c-0.8-0.7-1.9-0.6-2.6,0.2c-0.7,0.8-0.6,1.9,0.2,2.6C109.3,91.5,110.5,91.4,111.1,90.6L111.1,90.6z M120.6,122.9
	c0,3.3-2.6,5.9-5.9,5.9s-5.9-2.6-5.9-5.9s2.6-5.9,5.9-5.9l0,0C117.9,117,120.6,119.6,120.6,122.9z M117.4,122.9
	c0-1.5-1.2-2.8-2.8-2.8s-2.8,1.2-2.8,2.8c0,1.5,1.2,2.8,2.8,2.8C116.2,125.7,117.4,124.4,117.4,122.9z M175.2,125.5
	c-0.8-0.7-1.9-0.6-2.6,0.2s-0.6,1.9,0.2,2.6c0.8,0.7,1.9,0.6,2.6-0.2S176,126.1,175.2,125.5L175.2,125.5L175.2,125.5z M183.6,125.9
	l-10.2-8.6c-0.2-0.2-0.4-0.1-0.6,0l-1.7,2.1c-0.2,0.2-0.1,0.4,0,0.6l10.2,8.6c0.2,0.2,0.4,0.1,0.6,0l1.7-2.1
	C183.8,126.3,183.8,126,183.6,125.9L183.6,125.9z M183.8,147.8c-0.2,0-0.4,0.2-0.4,0.4v2.7c0,0.2,0.2,0.4,0.4,0.4h4.2v-3.6
	L183.8,147.8z M175.1,162.5c0,3.3-2.6,5.9-5.9,5.9s-5.9-2.6-5.9-5.9c0-3.3,2.6-5.9,5.9-5.9l0,0C172.4,156.6,175.1,159.3,175.1,162.5
	L175.1,162.5z M172,162.5c0-1.5-1.2-2.8-2.8-2.8c-1.5,0-2.8,1.2-2.8,2.8c0,1.5,1.2,2.8,2.8,2.8C170.7,165.3,172,164.1,172,162.5
	L172,162.5z M10.3,16.7c0-3.3,2.7-5.9,5.9-5.9s5.9,2.7,5.9,5.9c0,3.3-2.6,5.9-5.9,5.9C13,22.6,10.3,20,10.3,16.7z M13.5,16.7
	c0,1.5,1.2,2.8,2.8,2.8s2.8-1.2,2.8-2.8s-1.2-2.8-2.8-2.8l0,0C14.7,13.9,13.5,15.2,13.5,16.7z M143.5,66.5l1.9-1.9
	c0.2-0.2,0.2-0.4,0-0.6l-3.5-3.5l3.5-3.5c0.2-0.2,0.2-0.4,0-0.6l-1.9-1.9c-0.2-0.2-0.4-0.2-0.6,0l-3.5,3.5l-3.5-3.5
	c-0.2-0.2-0.4-0.2-0.6,0l-1.9,1.9c-0.2,0.2-0.2,0.4,0,0.6l3.5,3.5l-3.5,3.5c-0.2,0.2-0.2,0.4,0,0.6l1.9,1.9c0.2,0.2,0.4,0.2,0.6,0
	l3.5-3.5l3.5,3.5C143.1,66.7,143.3,66.7,143.5,66.5z M169.6,91.4l1.6-4.6c0.1-0.2,0-0.5-0.3-0.5l-2.6-0.9c-0.2-0.1-0.5,0-0.5,0.3
	l-1.6,4.6l-4.6-1.6c-0.2-0.1-0.5,0-0.5,0.3l-0.9,2.6c-0.1,0.2,0,0.5,0.3,0.5l8,2.7L169.6,91.4z M151.3,115.9c-0.2-0.2-0.4-0.2-0.6,0
	l-3.5,3.5l-3.5-3.5c-0.2-0.2-0.4-0.2-0.6,0l-1.9,1.9c-0.2,0.2-0.2,0.4,0,0.6l6,6l2.5-2.5l3.5-3.5c0.2-0.2,0.2-0.4,0-0.6L151.3,115.9
	z M16.5,125.8l6.9-4.9l-2.1-2.9l-2.8-4c-0.1-0.2-0.4-0.2-0.6-0.1l0,0l-2.2,1.6c-0.2,0.1-0.2,0.4-0.1,0.6l0,0l2.8,4l-4,2.8
	c-0.2,0.1-0.2,0.4-0.1,0.6l0,0l1.6,2.2C16,125.9,16.3,126,16.5,125.8z M28.1,175.1l-1.9-1.9c-0.2-0.2-0.4-0.2-0.6,0l-3.5,3.5
	l-3.5-3.5c-0.2-0.2-0.4-0.2-0.6,0l-1.9,1.9c-0.2,0.2-0.2,0.4,0,0.6l3.5,3.5l-3.5,3.5c-0.2,0.2-0.2,0.4,0,0.6l1.9,1.9
	c0.2,0.2,0.4,0.2,0.6,0l3.5-3.5l3.5,3.5c0.2,0.2,0.4,0.2,0.6,0l1.9-1.9c0.2-0.2,0.2-0.4,0-0.6l-3.5-3.5l3.5-3.5
	C28.3,175.6,28.3,175.3,28.1,175.1L28.1,175.1z M30.4,147.7c-1,0-1.8,0.8-1.8,1.8s0.8,1.8,1.8,1.8s1.8-0.8,1.8-1.8
	S31.4,147.7,30.4,147.7L30.4,147.7z M15.3,92.4c0-1-0.8-1.8-1.8-1.8s-1.8,0.8-1.8,1.8s0.8,1.8,1.8,1.8S15.3,93.4,15.3,92.4
	L15.3,92.4z M11.6,82c0,1,0.8,1.8,1.8,1.8s1.8-0.8,1.8-1.8s-0.8-1.8-1.8-1.8S11.6,81,11.6,82L11.6,82z M3.3,58.7
	c-1,0-1.8,0.8-1.8,1.8s0.8,1.8,1.8,1.8s1.8-0.8,1.8-1.8l0,0C5.1,59.5,4.3,58.7,3.3,58.7z M32.7,45.7l-1.9-1.9
	c-0.2-0.2-0.4-0.2-0.6,0l-3.5,3.5l-3.5-3.5c-0.2-0.2-0.4-0.2-0.6,0l-1.9,1.9c-0.2,0.2-0.2,0.4,0,0.6l3.5,3.5l-3.5,3.5
	c-0.2,0.2-0.2,0.4,0,0.6l1.9,1.9c0.2,0.2,0.4,0.2,0.6,0l3.5-3.5l3.5,3.5c0.2,0.2,0.4,0.2,0.6,0l1.9-1.9c0.2-0.2,0.2-0.4,0-0.6
	l-3.5-3.5l3.5-3.5C32.8,46.1,32.8,45.8,32.7,45.7L32.7,45.7L32.7,45.7z M43.2,101.5c1,0,1.8-0.8,1.8-1.8s-0.8-1.8-1.8-1.8
	s-1.8,0.8-1.8,1.8C41.4,100.6,42.2,101.5,43.2,101.5L43.2,101.5z M68.4,91.6c-3.3,0-5.9-2.6-5.9-5.9s2.6-5.9,5.9-5.9
	s5.9,2.6,5.9,5.9l0,0C74.3,89,71.7,91.6,68.4,91.6L68.4,91.6z M71.2,85.7c0-1.5-1.2-2.8-2.8-2.8s-2.8,1.2-2.8,2.8
	c0,1.5,1.2,2.8,2.8,2.8S71.2,87.2,71.2,85.7z M73,142.4c-1,0-1.8,0.8-1.8,1.8S72,146,73,146s1.8-0.8,1.8-1.8
	C74.8,143.3,74,142.4,73,142.4L73,142.4z M59.7,159.7c-0.2-0.2-0.4-0.2-0.6,0l-3.5,3.5l-3.5-3.5c-0.2-0.2-0.4-0.2-0.6,0l-1.9,1.9
	c-0.2,0.2-0.2,0.4,0,0.6l6,6l2.5-2.5l3.5-3.5c0.2-0.2,0.2-0.4,0-0.6L59.7,159.7z M47.5,131.6c-3.3,0-5.9-2.7-5.9-5.9
	s2.7-5.9,5.9-5.9c3.3,0,5.9,2.7,5.9,5.9l0,0C53.4,128.9,50.7,131.5,47.5,131.6z M50.3,125.6c0-1.5-1.2-2.8-2.8-2.8s-2.8,1.2-2.8,2.8
	c0,1.5,1.2,2.8,2.8,2.8l0,0C49,128.4,50.2,127.2,50.3,125.6z M45.4,78.7l1.9-1.9c0.2-0.2,0.2-0.4,0-0.6l-3.5-3.5l3.5-3.5
	c0.2-0.2,0.2-0.4,0-0.6l-1.9-1.9c-0.2-0.2-0.4-0.2-0.6,0l-6,6l2.5,2.5l3.5,3.5C44.9,78.9,45.2,78.9,45.4,78.7z M76.8,35.5
	c0,0.2,0.2,0.4,0.4,0.4h2.7c0.2,0,0.4-0.2,0.4-0.4v-4.9h4.9c0.2,0,0.4-0.2,0.4-0.4v-2.7c0-0.2-0.2-0.4-0.4-0.4h-4.9v-4.9
	c0-0.2-0.2-0.4-0.4-0.4h-2.7c-0.2,0-0.4,0.2-0.4,0.4V27h-4.9c-0.2,0-0.4,0.2-0.4,0.4v2.7c0,0.2,0.2,0.4,0.4,0.4h4.9V35.5z"/>
</svg>
